<svg id="visual" viewBox="0 0 900 450" width="900" height="450" xmlns="http://www.w3.org/2000/svg" xmlns:xlink="http://www.w3.org/1999/xlink" version="1.1"><rect x="0" y="0" width="900" height="450" fill="#F0F5F9"></rect><path d="M0 149L12.5 160.2C25 171.3 50 193.7 75 194.2C100 194.7 125 173.3 150 164.8C175 156.3 200 160.7 225 164.8C250 169 275 173 300 189.7C325 206.3 350 235.7 375 248.8C400 262 425 259 450 257.8C475 256.7 500 257.3 525 235.7C550 214 575 170 600 153.8C625 137.7 650 149.3 675 162.8C700 176.3 725 191.7 750 185C775 178.3 800 149.7 825 147.5C850 145.3 875 169.7 887.5 181.8L900 194L900 451L887.5 451C875 451 850 451 825 451C800 451 775 451 750 451C725 451 700 451 675 451C650 451 625 451 600 451C575 451 550 451 525 451C500 451 475 451 450 451C425 451 400 451 375 451C350 451 325 451 300 451C275 451 250 451 225 451C200 451 175 451 150 451C125 451 100 451 75 451C50 451 25 451 12.5 451L0 451Z" fill="#c8d6de"></path><path d="M0 229L12.5 235.7C25 242.3 50 255.7 75 254.7C100 253.7 125 238.3 150 223.2C175 208 200 193 225 187.3C250 181.7 275 185.3 300 204.3C325 223.3 350 257.7 375 256.3C400 255 425 218 450 204.5C475 191 500 201 525 214.5C550 228 575 245 600 254.7C625 264.3 650 266.7 675 257.5C700 248.3 725 227.7 750 214.3C775 201 800 195 825 195.8C850 196.7 875 204.3 887.5 208.2L900 212L900 451L887.5 451C875 451 850 451 825 451C800 451 775 451 750 451C725 451 700 451 675 451C650 451 625 451 600 451C575 451 550 451 525 451C500 451 475 451 450 451C425 451 400 451 375 451C350 451 325 451 300 451C275 451 250 451 225 451C200 451 175 451 150 451C125 451 100 451 75 451C50 451 25 451 12.5 451L0 451Z" fill="#99a4aa"></path><path d="M0 283L12.5 277.2C25 271.3 50 259.7 75 255C100 250.3 125 252.7 150 258C175 263.3 200 271.7 225 277.3C250 283 275 286 300 280.2C325 274.3 350 259.7 375 260.2C400 260.7 425 276.3 450 289.5C475 302.7 500 313.3 525 311.5C550 309.7 575 295.3 600 284.8C625 274.3 650 267.7 675 276.3C700 285 725 309 750 319.5C775 330 800 327 825 322.5C850 318 875 312 887.5 309L900 306L900 451L887.5 451C875 451 850 451 825 451C800 451 775 451 750 451C725 451 700 451 675 451C650 451 625 451 600 451C575 451 550 451 525 451C500 451 475 451 450 451C425 451 400 451 375 451C350 451 325 451 300 451C275 451 250 451 225 451C200 451 175 451 150 451C125 451 100 451 75 451C50 451 25 451 12.5 451L0 451Z" fill="#6d7479"></path><path d="M0 356L12.5 359C25 362 50 368 75 361.2C100 354.3 125 334.7 150 335.3C175 336 200 357 225 353.3C250 349.7 275 321.3 300 314.2C325 307 350 321 375 329.2C400 337.3 425 339.7 450 342.8C475 346 500 350 525 345.3C550 340.7 575 327.3 600 330.5C625 333.7 650 353.3 675 355C700 356.7 725 340.3 750 327.8C775 315.3 800 306.7 825 311.3C850 316 875 334 887.5 343L900 352L900 451L887.5 451C875 451 850 451 825 451C800 451 775 451 750 451C725 451 700 451 675 451C650 451 625 451 600 451C575 451 550 451 525 451C500 451 475 451 450 451C425 451 400 451 375 451C350 451 325 451 300 451C275 451 250 451 225 451C200 451 175 451 150 451C125 451 100 451 75 451C50 451 25 451 12.5 451L0 451Z" fill="#44484b"></path><path d="M0 383L12.5 381.8C25 380.7 50 378.3 75 377.5C100 376.7 125 377.3 150 374.8C175 372.3 200 366.7 225 365C250 363.3 275 365.7 300 374C325 382.3 350 396.7 375 400.2C400 403.7 425 396.3 450 396.8C475 397.3 500 405.7 525 399.3C550 393 575 372 600 362.8C625 353.7 650 356.3 675 358C700 359.7 725 360.3 750 360C775 359.7 800 358.3 825 363.3C850 368.3 875 379.7 887.5 385.3L900 391L900 451L887.5 451C875 451 850 451 825 451C800 451 775 451 750 451C725 451 700 451 675 451C650 451 625 451 600 451C575 451 550 451 525 451C500 451 475 451 450 451C425 451 400 451 375 451C350 451 325 451 300 451C275 451 250 451 225 451C200 451 175 451 150 451C125 451 100 451 75 451C50 451 25 451 12.5 451L0 451Z" fill="#1e2022"></path></svg>